<svg version="1.1" id="Calque_1" xmlns="http://www.w3.org/2000/svg" xmlns:xlink="http://www.w3.org/1999/xlink" x="0px" y="0px"
	 viewBox="0 0 432 432" style="enable-background:new 0 0 432 432;" xml:space="preserve">
<style type="text/css">
	.st0{fill:#6E3C3F;}
	.st1{fill:#E3635C;}
	.st2{fill:#343434;}
	.st3{fill:#B1C369;}
	.st4{fill:#A490C4;}
	.st5{fill:#A2C1DB;}
	.st6{fill:#AFB67B;}
	.st7{fill:#4F4747;}
	.st8{fill:#AA6555;}
	.st9{fill:#93C6E3;}
	.st10{fill:#9C3A47;}
	.st11{fill:#52B5C3;}
	.st12{fill:#4B6C2A;}
	.st13{fill:#F4A38D;}
	.st14{fill:#6A8E2D;}
	.st15{fill:#EE7A9F;}
	.st16{fill:#F7DA6A;}
	.st17{fill:#E2991A;}
	.st18{fill:#A7B7BE;}
	.st19{fill:#E8D8CA;}
	.st20{fill:#A1A499;}
	.st21{fill:#C42725;}
	.st22{fill:#DBDC50;}
	.st23{fill:#020203;}
	.st24{fill:#92AA3C;}
	.st25{fill:#DFB87F;}
	.st26{fill:#7E4E1C;}
	.st27{fill:#BBCC53;}
	.st28{fill:#BA5C78;}
	.st29{fill:#85924F;}
	.st30{fill:#7C1142;}
	.st31{fill:#3B322E;}
	.st32{fill:#3B6C51;}
	.st33{fill:#C1292E;}
	.st34{fill:#CDCCCC;}
	.st35{fill:#886649;}
	.st36{fill:#F9B03D;}
	.st37{fill:#7D8C5B;}
	.st38{fill:#0D341E;}
	.st39{fill:#4D8F53;}
	.st40{fill:#1B1B1B;}
	.st41{fill:#F39323;}
	.st42{fill:#E7E6E6;}
	.st43{fill:#9A908B;}
	.st44{fill:#548981;}
	.st45{fill:#89525A;}
	.st46{fill:#AB9AB1;}
	.st47{fill:#5E676E;}
	.st48{fill:#DDDBCA;}
	.st49{fill:#56463E;}
	.st50{fill:#457885;}
	.st51{fill:#FFFFFF;}
	.st52{fill:#E69678;}
	.st53{fill:#A5AB9B;}
	.st54{fill:#855354;}
	.st55{fill:#DE8F6E;}
	.st56{fill:#C19D63;}
	.st57{fill:#837F62;}
	.st58{fill:#7D8769;}
	.st59{fill:#39466A;}
	.st60{fill:#4E4D4D;}
	.st61{fill:#673E44;}
	.st62{fill:#CEB283;}
	.st63{fill:#8890A4;}
	.st64{fill:#99B8B3;}
	.st65{fill:#A0747A;}
	.st66{fill:#BB839E;}
	.st67{fill:#E5DA9B;}
	.st68{fill:#BA9BC9;}
	.st69{fill:#8CACB5;}
	.st70{fill:#746458;}
	.st71{fill:#34354B;}
	.st72{fill:#6A8188;}
	.st73{fill:#B4B4B4;}
	.st74{fill:#97CB9E;}
	.st75{fill:#EE7896;}
	.st76{fill:#785F63;}
	.st77{fill:#E4A87C;}
	.st78{fill:#98D5E8;}
	.st79{fill:#CB6083;}
	.st80{fill:#9A9999;}
	.st81{fill:#C49A6C;}
	.st82{fill:#EC96AB;}
	.st83{fill:#ED87AB;}
	.st84{fill:#E2B471;}
	.st85{fill:#59B465;}
	.st86{fill:#4C996E;}
	.st87{fill:#A84F6B;}
	.st88{fill:#6BC4CD;}
	.st89{fill:#D6809C;}
	.st90{fill:#9DD0B3;}
	.st91{fill:#F3AA9A;}
	.st92{fill:#F29292;}
	.st93{fill:#BBBBBB;}
	.st94{fill:#5B5242;}
	.st95{fill:#8CCDC6;}
	.st96{fill:#EAC892;}
	.st97{fill:#F4B0CC;}
	.st98{fill:#7A6350;}
	.st99{fill:#C8C0C5;}
	<!-- .st100{fill:#A68C6D;} -->
	.st101{fill:#F1D3D4;} 
	.st102{fill:#879C82;}
	.st103{fill:#B29498;}
	.st104{fill:#A999A4;}
	<!-- .st105{fill:#8FA369;} -->
	.st106{fill:#B17081;}
	.st107{fill:#E1B63D;}
	.st108{fill:#B05274;}
	.st109{fill:#CA9256;}
	.st110{fill:#A9A9AA;}
	.st111{fill:#BE202E;}
	.st112{fill-rule:evenodd;clip-rule:evenodd;fill:#A9A9AA;}
	.st113{fill:#89657B;}
	.st114{fill:#7F95B7;}
	.st115{fill:#9F9EC6;}
	.st116{fill:#7F6178;}
	.st117{fill:#6D8999;}
	.st118{fill:#A0C07E;}
	.st119{fill:#AA779F;}
	.st120{fill:#FBC063;}
	.st121{fill:#80A0C2;}
	.st122{fill:#CFAC75;}
	.st123{fill:#CD94C2;}
	.st124{fill:#AAB6DE;}
	.st125{fill:#CCAE99;}
	.st126{fill:#86B69F;}
	.st127{fill:#555D57;}
	.st128{fill:#86C1BB;}
	.st129{fill:#CA856C;}
	.st130{fill:#A4AA6D;}
	.st131{fill:#EAB978;}
	.st132{fill:#C091A7;}
	.st133{fill:#7E9DAD;}
	.st134{fill:#E5B1C8;}
	.st135{fill:#B9AEA3;}
	.st136{fill:#627F99;}
	.st137{fill:#E6A9AB;}
	.st138{fill:#913E41;}
	.st139{fill:#B46269;}
	.st140{fill:#C69C6C;}
	.st141{fill:#ED6D78;}
	.st142{fill:#C09047;}
	.st143{fill:#AE6C7B;}
	.st144{fill:#918FB2;}
	.st145{fill:#67816D;}
	.st146{fill:#B3B1A2;}
	.st147{fill:#A23A43;}
	.st148{fill:#6A907C;}
	.st149{fill:#B09294;}
	.st150{fill:#7B484D;}
	.st151{fill:#B78B5E;}
	.st152{fill:#DB7D82;}
	.st153{fill:#781611;}
	.st154{fill:#D38F8F;}
	.st155{fill:#965656;}
	.st156{fill:#9AA4B4;}
	.st157{fill:#754D24;}
	.st158{fill:#C8B7A7;}
	.st159{fill:#B4363B;}
	.st160{fill:#C77272;}
	.st161{fill:#91AF82;}
	.st162{fill:#C69462;}
	.st163{fill:#ED6C5B;}
	.st164{fill:#F3C186;}
	.st165{fill:#F3957D;}
	.st166{fill:#D1BBBC;}
</style>
<g>
	<g>
		<g>
			<g>
				<path class="st102" d="M314.2,278.4c0.4-0.1,0.7-0.1,1-0.2c0.8-0.1,1.5-0.3,2.2-0.5c0.7-0.2,1.4-0.5,2-0.9
					c1.3-0.7,2.6-1.7,3.7-2.8c2-2.2,3.8-4.6,4.8-7.5c0.1-0.2,0.2-0.5,0.2-0.7c0.1-0.2,0.2-0.5,0.2-0.7c0.2,0.1,0.3,0.2,0.5,0.3
					c0.9,0.5,1.8,0.4,2.7-0.4c0.3-0.2,0.5-0.6,0.8-0.9c0.2-0.2,0.4-0.5,0.6-0.8c0.4-0.5,0.9-0.8,1.5-0.8c0.8,0,1.6-0.2,2.4-0.7
					c0.1,0.4,0.3,0.9,0.4,1.3c0.6,1.7,1.3,3.3,2,5c0.9,2.1,1.7,4.3,2.5,6.5c0.8,2.2,1,4.5,0.6,7.1c-0.1,0.8-0.3,1.6-0.5,2.4
					c-0.3,0.8-0.6,1.5-0.9,2.2c-0.7,1.4-1.6,2.8-2.8,3.9c-1.4,1.4-2.9,2.3-4.5,2.8c-0.8,0.3-1.5,0.4-2.3,0.5c-0.8,0.1-1.6,0-2.4-0.1
					c-1.5-0.2-2.9-0.8-4.3-1.4c-1.9-0.8-3.6-1.8-5.3-3c-1.2-1-2.2-2.1-3-3.4c-0.8-1.3-1.2-2.7-1.6-4.3
					C314.6,280.5,314.4,279.5,314.2,278.4z"/>
				<path class="st102" d="M319.6,255.9c0.1,1,0.7,1.7,1.5,2.3c0.2,0.1,0.4,0.3,0.5,0.4c0.7,0.4,1.1,1.1,1.4,1.8
					c0.2,0.4,0.4,0.8,0.6,1.3c0.5,1,1.3,1.6,2.4,1.6c0.3,0,0.6,0,0.9,0.1c-0.1,0.3-0.2,0.5-0.3,0.8c-0.6,1.5-1.2,2.9-1.9,4.2
					c-0.8,1.3-1.7,2.6-2.8,3.7c-0.7,0.8-1.5,1.5-2.4,2.1c-1.2,0.9-2.6,1.5-4,1.7c-1.9,0.3-3.9,0.5-5.8,0.7c-1.7,0.1-3.3-0.1-4.8-0.7
					c-2.2-0.9-3.6-2.5-4.2-4.7c-0.3-1.3-0.7-2.6-1-3.8c-0.6-1.9-0.6-3.8,0.2-5.5c0.5-1.3,1.2-2.6,2.1-3.7c0.4-0.4,0.7-0.8,1.1-1.1
					c0.4-0.3,0.8-0.6,1.3-0.9c0.9-0.5,2-0.8,3.1-1.1c2.2-0.5,4.4-0.5,6.6-0.1c1.1,0.2,2.2,0.4,3.4,0.6
					C318.2,255.7,318.8,255.8,319.6,255.9z"/>
				<path class="st102" d="M338.2,260.9c0.3-0.1,0.5-0.2,0.7-0.2c1.5-0.6,2.3-2.1,1.9-3.7c-0.1-0.4-0.3-0.9-0.5-1.3
					c-0.3-0.6-0.4-1.2-0.4-1.8c0-1.1-0.2-2-0.7-2.9c-0.1-0.1-0.1-0.3-0.2-0.4c0.5-0.3,0.9-0.5,1.4-0.8c0.8-0.5,1.6-0.8,2.4-1.2
					c0.8-0.3,1.6-0.6,2.4-0.8c1.6-0.4,3.3-0.6,5-0.5c2.9,0.2,5.5,1.1,7.9,3.1c0.6,0.5,1.2,1.1,1.7,1.8c0.5,0.7,0.9,1.4,1.2,2.2
					c0.6,1.6,1,3.4,1,5.6c0,0.6,0,1.1-0.1,1.7c-0.1,0.6-0.1,1.1-0.2,1.6c-0.2,1.1-0.4,2.2-0.8,3.2c-0.6,2.1-1.7,4.1-3,6
					c-0.7,1-1.4,1.8-2.2,2.5c-0.8,0.7-1.7,1.1-2.6,1.5c-2.2,0.8-4.2,0.8-6.1,0.1c-0.8-0.3-1.6-0.6-2.3-0.9c-0.1-0.1-0.2-0.2-0.3-0.3
					c-0.5-1.8-1.1-3.6-1.8-5.2c-0.7-1.7-1.5-3.3-2.3-4.9C339.6,263.7,338.9,262.3,338.2,260.9z"/>
				<path class="st102" d="M324.5,225.7c0.6-0.7,1.2-1.4,2-1.9c1-0.7,2.1-1.2,3.2-1.7c2.2-0.8,4.4-1.3,6.7-1.2
					c1.6,0,3.1,0.4,4.6,1.1c1.8,0.9,3.4,2,4.7,3.6c0.7,0.8,1.3,1.6,1.9,2.4c0.6,0.8,1.3,1.7,1.8,2.6c0.9,1.4,1.6,3.1,1.9,5
					c0.2,1.2,0.2,2.4,0,3.6c-0.2,1.2-0.5,2.4-0.9,3.5l-0.5,1.3c-0.2,0.5-0.5,0.7-0.9,0.8c-0.9,0-1.8,0.1-2.7,0.3
					c-1.3,0.3-2.5,0.7-3.7,1.3c-0.6,0.3-1.2,0.6-1.7,1c-0.6,0.4-1.1,0.8-1.7,1.2c-0.2,0.1-0.3,0.2-0.5,0.4c-0.1-0.2-0.1-0.4-0.2-0.5
					c-0.5-1.2-1.3-2-2.6-2.1c-0.3,0-0.7-0.1-1-0.1c-0.5,0-1-0.3-1.3-0.7c-0.5-0.5-0.9-0.9-1.6-1.1c0-0.3,0.1-0.5,0.1-0.8
					c0.3-1.8,0.5-3.7,0.3-5.5c-0.1-0.9-0.2-1.8-0.4-2.7c-0.2-0.9-0.4-1.7-0.9-2.6c-0.6-1.4-1.4-2.6-2.2-3.7c-0.9-1.1-1.9-2-3.1-2.8
					c-0.2-0.1-0.4-0.3-0.6-0.4C325,226,324.8,225.9,324.5,225.7z"/>
				<path class="st102" d="M299.2,258c-1.6-1.1-2.8-2.5-3.3-4.2c-0.7-2.4-0.8-4.5-0.4-6.7c0.2-0.9,0.8-1.7,1.3-2.4
					c0.6-0.8,1.2-1.5,2-2.3l0.6-0.5l0.5-0.5c0.4-0.4,0.8-0.7,1.2-1c0.7-0.6,1.6-1.1,2.6-1.5c1.5-0.5,2.9-0.5,4.4,0.2
					c0.7,0.3,1.4,0.7,2,1.2c0.6,0.4,1.2,0.9,1.8,1.4c1.2,0.9,2.3,1.9,3.4,3c1.7,1.7,3.5,3.3,5.4,4.8c0,0.1,0,0.2,0,0.2
					c-0.3,0.8-0.2,1.5,0.2,2.2l0.1,0.3c0.3,0.7,0.3,1.1-0.3,1.6c-0.1,0.1-0.3,0.2-0.4,0.3c-0.6-0.2-1.3-0.4-1.9-0.6
					c-2.6-0.6-5.2-1-7.9-0.9c-1.2,0-2.5,0.2-3.6,0.5c-0.6,0.1-1.1,0.3-1.7,0.5c-0.6,0.2-1.1,0.4-1.6,0.7c-0.8,0.4-1.5,0.9-2.2,1.4
					c-0.3,0.3-0.6,0.6-0.9,0.9c-0.3,0.3-0.6,0.6-0.8,0.9l-0.4,0.5C299.3,257.9,299.2,257.9,299.2,258z"/>
				<path class="st102" d="M311,238.7c0.3-1.2,0.5-2.4,0.8-3.6c0.3-1,0.6-1.9,1.1-2.8c0.2-0.4,0.5-0.9,0.8-1.3
					c0.3-0.4,0.6-0.9,0.9-1.3c1.4-1.6,3.1-2.6,5.4-2.9c1.4-0.2,2.7,0.1,4,0.7c1.4,0.7,2.5,1.8,3.5,3c1,1.4,1.9,2.9,2.3,4.5
					c0.2,0.8,0.4,1.7,0.5,2.5c0.1,0.9,0.2,1.8,0.1,2.7c-0.1,1.4-0.2,2.7-0.3,4.1c-0.8,0.5-1.7,0.8-2.7,0.4c-0.3-0.1-0.6-0.1-0.9-0.2
					c-1.1,0-2,0.4-2.6,1.4c-0.2,0.3-0.3,0.5-0.4,0.8c-0.2,0.6-0.6,0.9-1.2,1.1c-0.1,0-0.3,0.1-0.4,0.1c-1.7-1.4-3.4-2.9-5-4.5
					c-0.9-0.9-1.8-1.8-2.8-2.6c-1-0.8-2-1.6-3.1-2.3C311.2,238.9,311.2,238.8,311,238.7z"/>
			</g>
			<g>
				<path class="st102" d="M211,332.2c0.2,0.3,0.5,0.5,0.7,0.8c0.9,1.2,2.1,2.2,3.3,3c0.3,0.2,0.7,0.4,1,0.6c0.3,0.2,0.7,0.3,1,0.5
					c0.7,0.3,1.5,0.5,2.3,0.7c2.9,0.8,5.9,0.9,8.9,0.5c0.2,0,0.5-0.1,0.7-0.2c0.2-0.1,0.5-0.1,0.8-0.2c0,0.2,0,0.4,0,0.5
					c0.1,1,0.6,1.7,1.6,2.1c0.4,0.1,0.8,0.2,1.2,0.3c0.3,0.1,0.6,0.1,0.9,0.1c0.7,0.1,1.1,0.4,1.4,0.9c0.4,0.7,1,1.3,1.8,1.7
					c-0.3,0.4-0.6,0.7-0.9,1c-1.2,1.3-2.3,2.8-3.3,4.2c-0.7,0.9-1.4,1.8-2.1,2.8c-0.7,0.9-1.5,1.8-2.3,2.7c-0.8,0.9-1.6,1.6-2.6,2.3
					c-1,0.7-2.1,1.3-3.3,1.7c-3,1.1-6.3,1.5-9.5,0.5c-1.9-0.6-3.4-1.3-4.7-2.4c-1.2-1.1-2.1-2.4-2.8-3.9c-0.6-1.4-0.8-2.9-1-4.4
					c-0.3-2-0.3-4,0-6.1c0.4-3.1,1.9-5.7,4.3-7.8C209.4,333.6,210.2,333,211,332.2z"/>
				<path class="st102" d="M233.2,325.6c-0.9,0.6-1.1,1.5-1.2,2.5c0,0.2-0.1,0.4-0.1,0.7c0,0.8-0.4,1.5-0.8,2.1
					c-0.3,0.4-0.6,0.7-0.8,1.1c-0.7,1-0.8,1.9-0.2,2.9c0.1,0.2,0.2,0.5,0.4,0.8c-0.3,0.1-0.6,0.1-0.8,0.2c-1.5,0.3-3.1,0.4-4.6,0.4
					c-1.5,0-3.1-0.1-4.6-0.5c-1-0.3-2-0.6-3-1c-1.4-0.6-2.6-1.5-3.5-2.6c-1.2-1.5-2.4-3.1-3.5-4.6c-0.9-1.4-1.6-2.9-1.8-4.6
					c-0.3-2.3,0.3-4.4,2-6c0.9-0.9,1.9-1.9,2.8-2.8c0.7-0.7,1.4-1.3,2.2-1.7c0.8-0.4,1.7-0.7,2.6-0.9c1.4-0.2,2.9-0.2,4.3,0
					c1,0.2,2,0.6,2.9,1.1c0.9,0.6,1.7,1.2,2.5,2.1c1.5,1.6,2.6,3.6,3.4,5.7c0.4,1.1,0.8,2.2,1.1,3.2
					C232.7,324.3,233,324.9,233.2,325.6z"/>
				<path class="st102" d="M238.2,344.2c0.2,0.2,0.4,0.3,0.5,0.5c1.2,1,2.9,1,4.2-0.2c0.3-0.3,0.6-0.7,0.9-1.1
					c0.4-0.5,0.8-0.9,1.4-1.2c0.9-0.5,1.7-1.1,2.2-1.9c0.1-0.1,0.2-0.2,0.3-0.4c0.5,0.3,0.9,0.5,1.4,0.8c3.1,1.8,5.5,4.1,7,7.2
					c1.3,2.6,1.8,5.4,1.3,8.3c-0.3,1.6-1,3.1-2,4.5c-0.5,0.7-1.1,1.4-1.9,1.9c-0.7,0.6-1.5,1.1-2.5,1.7c-2,1.1-4,2-6.2,2.4
					c-1.1,0.2-2.2,0.4-3.3,0.5c-1.1,0.1-2.2,0.1-3.4,0c-2.4-0.2-4.3-1-5.8-2.2c-0.9-0.7-1.6-1.5-2.1-2.4c-0.5-0.9-0.8-1.8-1-2.8
					c-0.1-0.8-0.3-1.7-0.4-2.5c0-0.1,0.1-0.3,0.2-0.4c1.3-1.3,2.5-2.8,3.6-4.2c1.1-1.5,2.1-2.9,3.1-4.4
					C236.5,346.9,237.3,345.6,238.2,344.2z"/>
				<path class="st102" d="M261.8,314.8c1,0.2,1.9,0.4,2.7,0.8c1.1,0.5,2.1,1.1,3,1.9c1.8,1.5,3.3,3.2,4.4,5.2
					c0.8,1.4,1.2,2.9,1.3,4.5c0.1,2,0,4-0.8,6c-0.7,1.9-1.6,3.8-2.5,5.7c-0.4,0.8-0.9,1.5-1.4,2.3c-0.6,0.7-1.2,1.3-2,1.9
					c-1,0.8-2,1.4-3.1,1.9c-1.1,0.5-2.3,0.7-3.5,0.9c-0.5,0.1-0.9,0.1-1.4,0.2c-0.5,0.1-0.9,0-1.1-0.4c-0.5-0.7-1-1.5-1.6-2.1
					c-1.8-2-4-3.5-6.6-4.5c-0.2-0.1-0.4-0.2-0.6-0.3c0.1-0.2,0.2-0.3,0.3-0.5c0.8-1.1,1.1-2.2,0.6-3.3c-0.1-0.3-0.3-0.6-0.4-0.9
					c-0.2-0.5-0.2-1-0.1-1.5c0.2-0.6,0.3-1.3,0.2-2c0.3-0.1,0.5-0.2,0.7-0.3c0.4-0.2,0.9-0.3,1.3-0.5c0.4-0.2,0.8-0.4,1.2-0.6
					c0.8-0.4,1.6-0.9,2.4-1.4c1.5-1,2.8-2.2,3.9-3.7c1.8-2.3,2.9-5,3-7.9c0-0.2,0-0.5,0-0.7C261.9,315.4,261.9,315.1,261.8,314.8z"
					/>
				<path class="st102" d="M221.3,309c0.2-2,0.7-3.7,2-5c1.7-1.7,3.5-3.1,5.6-3.7c0.9-0.3,1.8-0.3,2.7-0.1c2,0.3,3.9,0.7,5.9,1.5
					c0.9,0.4,1.8,0.8,2.6,1.5c1.2,1,1.9,2.3,2,4c0.1,1.6,0,3.1-0.2,4.6c-0.1,0.7-0.2,1.5-0.4,2.2c-0.1,0.7-0.3,1.5-0.5,2.2
					c-0.6,2.3-1.2,4.6-1.5,7c-0.1,0-0.1,0.1-0.2,0.1c-0.4,0.1-0.7,0.2-1.1,0.5c-0.3,0.2-0.6,0.5-0.8,0.8l-0.2,0.3
					c-0.5,0.6-0.8,0.7-1.6,0.5c-0.2-0.1-0.3-0.1-0.5-0.2c-0.2-0.6-0.3-1.3-0.5-2c-0.8-2.6-1.8-5-3.2-7.2c-1.3-2.1-2.9-3.9-4.8-5.2
					c-0.4-0.3-0.7-0.5-1.1-0.7c-0.4-0.2-0.8-0.4-1.2-0.5c-0.8-0.3-1.6-0.5-2.4-0.6l-0.6-0.1C221.3,309.1,221.3,309,221.3,309z"/>
				<path class="st102" d="M243.9,309.7c1.2-0.3,2.3-0.8,3.5-1.1c0.5-0.1,1-0.2,1.5-0.3c0.5-0.1,1-0.1,1.5-0.1c1,0,2.1,0,3.1,0.3
					c2.1,0.5,3.8,1.4,5.2,3.2c0.8,1.1,1.3,2.4,1.4,3.8c0,0.8,0,1.6-0.2,2.3c-0.1,0.8-0.4,1.5-0.7,2.2c-0.7,1.6-1.6,3-2.8,4.3
					c-0.6,0.7-1.2,1.2-1.9,1.7c-0.7,0.5-1.5,1-2.3,1.4c-1.2,0.7-2.5,1.2-3.7,1.8c-0.8-0.5-1.6-1.1-1.7-2.1c0-0.3-0.2-0.6-0.3-0.9
					c-0.5-1-1.4-1.5-2.5-1.5c-0.3,0-0.6,0-0.9,0c-0.6,0.1-1.1-0.1-1.6-0.5c-0.1-0.1-0.2-0.2-0.3-0.3c0.4-2.2,0.9-4.4,1.4-6.5
					c0.6-2.5,1.2-5,1.3-7.5C243.8,309.9,243.9,309.8,243.9,309.7z"/>
			</g>
			<g>
				<path class="st102" d="M112.8,269.8c-0.1,0.3-0.2,0.7-0.4,1c-0.6,1.4-0.9,2.9-0.9,4.4c0,1.5,0.1,3.1,0.6,4.6
					c0.4,1.4,1,2.8,1.6,4.2c0.3,0.7,0.7,1.3,1.1,1.9c0.4,0.6,0.9,1.2,1.3,1.8c0.2,0.2,0.3,0.4,0.5,0.6c0.2,0.2,0.3,0.4,0.5,0.6
					c-0.2,0.1-0.3,0.2-0.4,0.3c-0.8,0.5-1.2,1.4-1,2.5c0.1,0.4,0.2,0.8,0.4,1.1c0.1,0.3,0.3,0.6,0.4,0.9c0.3,0.6,0.2,1.2-0.1,1.7
					c-0.4,0.7-0.6,1.5-0.6,2.4c-0.5-0.1-0.9-0.2-1.3-0.3c-1.8-0.4-3.5-0.5-5.3-0.7c-2.3-0.3-4.6-0.7-6.9-1.1c-1.1-0.2-2.2-0.5-3.3-1
					c-1.1-0.5-2.1-1.2-3.1-2c-2.6-2-4.4-4.8-5.3-7.9c-0.5-1.9-0.5-3.7-0.2-5.3c0.3-1.6,0.9-3,1.9-4.3c0.9-1.2,2.1-2.1,3.3-3
					c1.6-1.2,3.4-2.3,5.2-3c1.4-0.6,2.9-0.9,4.4-0.9c0.7,0,1.5,0.1,2.2,0.2c0.8,0.1,1.5,0.3,2.3,0.6
					C110.8,269.1,111.8,269.4,112.8,269.8z"/>
				<path class="st102" d="M129.7,285.7c-0.9-0.4-1.9-0.2-2.8,0.2c-0.2,0.1-0.4,0.2-0.6,0.3c-0.7,0.4-1.5,0.4-2.3,0.3
					c-0.5-0.1-0.9-0.1-1.4-0.1c-1.2-0.1-2,0.3-2.6,1.3c-0.1,0.2-0.3,0.5-0.5,0.7c-0.2-0.2-0.4-0.4-0.5-0.6c-1-1.2-1.9-2.5-2.7-3.8
					c-0.8-1.3-1.4-2.8-1.8-4.2c-0.3-1-0.5-2.1-0.6-3.1c-0.2-1.5,0-3,0.5-4.3c0.7-1.8,1.5-3.7,2.3-5.4c0.7-1.5,1.7-2.8,3-3.8
					c1.9-1.4,4-1.9,6.2-1.3c1.3,0.4,2.5,0.7,3.8,1c2,0.4,3.5,1.4,4.6,2.9c0.9,1.1,1.7,2.3,2.1,3.7c0.8,2,0.6,4.1-0.1,6.3
					c-0.6,2.1-1.8,4-3.2,5.8c-0.7,0.9-1.5,1.7-2.2,2.6C130.6,284.6,130.1,285.1,129.7,285.7z"/>
				<path class="st102" d="M116.1,299.3c-0.1,0.3-0.1,0.5-0.1,0.7c-0.2,1.6,0.7,3,2.3,3.5c0.4,0.1,0.9,0.2,1.3,0.2
					c0.6,0,1.2,0.2,1.8,0.6c0.9,0.6,1.8,0.9,2.8,0.9c0.1,0,0.3,0,0.5,0.1c0,0.6,0,1.1,0,1.6c0,3.6-0.8,6.8-2.7,9.7
					c-1.6,2.4-3.7,4.2-6.6,5.3c-1.5,0.6-3.2,0.7-4.9,0.5c-1.7-0.2-3.4-0.9-5.3-1.9c-1-0.6-1.9-1.2-2.8-1.9c-0.8-0.7-1.6-1.5-2.4-2.3
					c-0.7-0.8-1.4-1.7-2.1-2.6c-0.6-0.9-1.2-1.9-1.6-3c-1-2.2-1.4-4.2-1-6.1c0.4-2.2,1.4-4,3-5.3c0.7-0.5,1.3-1.1,2-1.6
					c0.1-0.1,0.3-0.1,0.4-0.1c1.8,0.4,3.6,0.8,5.4,1c1.8,0.2,3.6,0.4,5.4,0.4C113,299.1,114.4,299.3,116.1,299.3z"/>
				<path class="st102" d="M153.4,305.1c0.3,0.9,0.6,1.8,0.6,2.8c0.1,1.2,0.1,2.4-0.2,3.6c-0.4,2.3-1.1,4.5-2.3,6.4
					c-0.8,1.4-1.9,2.5-3.2,3.4c-1.6,1.1-3.5,2-5.6,2.3c-2,0.3-4.1,0.6-6.2,0.7c-1.8,0.1-3.5-0.2-5.3-0.9c-1.1-0.5-2.2-1-3.2-1.8
					c-0.9-0.8-1.8-1.6-2.6-2.6c-0.3-0.4-0.6-0.7-0.9-1.1c-0.4-0.4-0.4-0.7-0.2-1.2c0.4-0.8,0.8-1.6,1.1-2.5c0.8-2.5,1-5.2,0.6-8
					c0-0.2-0.1-0.4-0.1-0.6c0.2,0,0.4,0,0.6,0.1c1.3,0.1,2.4-0.2,3.2-1.2c0.2-0.3,0.4-0.5,0.6-0.8c0.3-0.4,0.7-0.7,1.2-0.8
					c0.6-0.1,1.2-0.4,1.8-0.8c0.2,0.2,0.4,0.3,0.6,0.5c0.7,0.6,1.4,1.2,2.2,1.7c0.8,0.5,1.6,0.9,2.4,1.3c0.8,0.4,1.6,0.7,2.5,1
					c0.9,0.2,1.8,0.4,2.7,0.5c1.5,0.2,2.9,0.2,4.3,0c1.4-0.2,2.8-0.7,4-1.3c0.2-0.1,0.4-0.2,0.6-0.4
					C152.9,305.4,153.1,305.3,153.4,305.1z"/>
				<path class="st102" d="M138.1,267c1.8-0.9,3.5-1.2,5.3-0.8c1.2,0.3,2.3,0.7,3.3,1.2c1,0.5,2,1.1,2.8,1.8
					c0.3,0.3,0.6,0.7,0.8,1.1c0.2,0.4,0.4,0.8,0.6,1.2c0.4,0.9,0.7,1.9,1,2.9c0.3,1,0.5,2,0.7,3c0.2,1,0.2,2,0,3
					c-0.3,1.5-1.1,2.8-2.4,3.7c-1.3,0.9-2.7,1.5-4.2,2.1c-1.4,0.5-2.8,1-4.3,1.4c-2.3,0.6-4.6,1.3-6.9,2.3c-0.1,0-0.1-0.1-0.2-0.1
					c-0.5-0.6-1.2-0.9-2-1l-0.3,0c-0.8-0.1-1-0.3-1.2-1.1c0-0.2-0.1-0.3-0.1-0.5c0.5-0.5,1-0.9,1.5-1.4c0.9-1,1.8-2,2.6-3
					c0.8-1.1,1.5-2.2,2.1-3.4c1.2-2.2,1.9-4.5,2-6.8c0.2-1.8-0.2-3.4-0.9-5l-0.2-0.6C138,267.1,138.1,267.1,138.1,267z"/>
				<path class="st102" d="M148.8,287c0.4,0.4,0.9,0.8,1.3,1.2c0.5,0.4,0.9,0.8,1.4,1.2c0.7,0.7,1.3,1.5,1.9,2.4
					c0.5,0.9,1,1.8,1.4,2.8c0.3,1,0.5,2,0.5,3c0,1-0.2,2-0.7,3.1c-0.6,1.3-1.4,2.3-2.6,3.1c-0.7,0.4-1.4,0.8-2.1,1
					c-0.7,0.3-1.5,0.4-2.3,0.5c-1.7,0.2-3.4,0.1-5.1-0.3c-1.6-0.4-3.2-1.1-4.8-2.1c-1.2-0.7-2.3-1.6-3.4-2.4c0-1,0.1-1.9,1-2.5
					c0.2-0.2,0.4-0.5,0.6-0.7c0.6-1,0.6-1.9,0.1-3c-0.2-0.3-0.3-0.5-0.5-0.8c-0.4-0.5-0.5-1-0.3-1.6c0-0.1,0.1-0.3,0.1-0.4
					c2.1-0.8,4.2-1.5,6.3-2c2.4-0.6,4.9-1.5,7.2-2.6C148.6,287,148.7,287,148.8,287z"/>
			</g>
			<g>
				<path class="st102" d="M117.8,153.6c-0.4,0.1-0.7,0.1-1,0.2c-0.8,0.1-1.5,0.3-2.2,0.5c-0.7,0.2-1.4,0.5-2,0.9
					c-1.3,0.7-2.6,1.7-3.7,2.8c-2,2.2-3.8,4.6-4.8,7.5c-0.1,0.2-0.2,0.5-0.2,0.7c-0.1,0.2-0.2,0.5-0.2,0.7c-0.2-0.1-0.3-0.2-0.5-0.3
					c-0.9-0.5-1.8-0.4-2.7,0.4c-0.3,0.2-0.5,0.6-0.8,0.9c-0.2,0.2-0.4,0.5-0.6,0.8c-0.4,0.5-0.9,0.8-1.5,0.8c-0.8,0-1.6,0.2-2.4,0.7
					c-0.1-0.4-0.3-0.9-0.4-1.3c-0.6-1.7-1.3-3.3-2-5c-0.9-2.1-1.7-4.3-2.5-6.5c-0.8-2.2-1-4.5-0.6-7.1c0.1-0.8,0.3-1.6,0.5-2.4
					c0.3-0.8,0.6-1.5,0.9-2.2c0.7-1.4,1.6-2.8,2.8-3.9c1.4-1.4,2.9-2.3,4.5-2.8c0.8-0.3,1.5-0.4,2.3-0.5c0.8-0.1,1.6,0,2.4,0.1
					c1.5,0.2,2.9,0.8,4.3,1.4c1.9,0.8,3.6,1.8,5.3,3c1.2,1,2.2,2.1,3,3.4c0.8,1.3,1.2,2.7,1.6,4.3
					C117.4,151.5,117.6,152.5,117.8,153.6z"/>
				<path class="st102" d="M112.4,176.1c-0.1-1-0.7-1.7-1.5-2.3c-0.2-0.1-0.4-0.3-0.5-0.4c-0.7-0.4-1.1-1.1-1.4-1.8
					c-0.2-0.4-0.4-0.8-0.6-1.3c-0.5-1-1.3-1.6-2.4-1.6c-0.3,0-0.6,0-0.9-0.1c0.1-0.3,0.2-0.5,0.3-0.8c0.6-1.5,1.2-2.9,1.9-4.2
					c0.8-1.3,1.7-2.6,2.8-3.7c0.7-0.8,1.5-1.5,2.4-2.1c1.2-0.9,2.6-1.5,4-1.7c1.9-0.3,3.9-0.5,5.8-0.7c1.7-0.1,3.3,0.1,4.8,0.7
					c2.2,0.9,3.6,2.5,4.2,4.7c0.3,1.3,0.7,2.6,1,3.8c0.6,1.9,0.6,3.8-0.2,5.5c-0.5,1.3-1.2,2.6-2.1,3.7c-0.4,0.4-0.7,0.8-1.1,1.1
					c-0.4,0.3-0.8,0.6-1.3,0.9c-0.9,0.5-2,0.8-3.1,1.1c-2.2,0.5-4.4,0.5-6.6,0.1c-1.1-0.2-2.2-0.4-3.4-0.6
					C113.8,176.3,113.2,176.2,112.4,176.1z"/>
				<path class="st102" d="M93.8,171.1c-0.3,0.1-0.5,0.2-0.7,0.2c-1.5,0.6-2.2,2.1-1.9,3.7c0.1,0.4,0.3,0.9,0.5,1.3
					c0.3,0.6,0.4,1.2,0.4,1.8c0,1.1,0.2,2,0.7,2.9c0.1,0.1,0.1,0.3,0.2,0.4c-0.5,0.3-0.9,0.5-1.4,0.8c-0.8,0.5-1.6,0.8-2.4,1.2
					c-0.8,0.3-1.6,0.6-2.4,0.8c-1.6,0.4-3.3,0.6-5,0.5c-2.9-0.2-5.5-1.1-7.9-3.1c-0.6-0.5-1.2-1.1-1.7-1.8c-0.5-0.7-0.9-1.4-1.2-2.2
					c-0.6-1.6-1-3.4-1-5.6c0-0.6,0-1.1,0.1-1.7c0.1-0.6,0.1-1.1,0.2-1.6c0.2-1.1,0.4-2.2,0.8-3.2c0.6-2.1,1.7-4.1,3-6
					c0.7-1,1.4-1.8,2.2-2.5c0.8-0.7,1.7-1.1,2.6-1.5c2.2-0.8,4.2-0.8,6.1-0.1c0.8,0.3,1.6,0.6,2.3,0.9c0.1,0.1,0.2,0.2,0.3,0.3
					c0.5,1.8,1.1,3.6,1.8,5.2c0.7,1.7,1.5,3.3,2.3,4.9C92.4,168.3,93.1,169.7,93.8,171.1z"/>
				<path class="st102" d="M107.5,206.3c-0.6,0.7-1.2,1.4-2,1.9c-1,0.7-2.1,1.2-3.2,1.7c-2.2,0.8-4.4,1.3-6.7,1.2
					c-1.6,0-3.1-0.4-4.6-1.1c-1.8-0.9-3.4-2-4.7-3.6c-0.7-0.8-1.3-1.6-1.9-2.4c-0.6-0.8-1.3-1.7-1.8-2.6c-0.9-1.4-1.6-3.1-1.9-5
					c-0.2-1.2-0.2-2.4,0-3.6c0.2-1.2,0.5-2.4,0.9-3.5l0.5-1.3c0.2-0.5,0.5-0.7,0.9-0.8c0.9,0,1.8-0.1,2.7-0.3
					c1.3-0.3,2.5-0.7,3.7-1.3c0.6-0.3,1.2-0.6,1.7-1c0.6-0.4,1.1-0.8,1.7-1.2c0.2-0.1,0.3-0.2,0.5-0.4c0.1,0.2,0.1,0.4,0.2,0.5
					c0.5,1.2,1.3,2,2.6,2.1c0.3,0,0.7,0.1,1,0.1c0.5,0,1,0.3,1.3,0.7c0.5,0.5,0.9,0.9,1.6,1.1c0,0.3-0.1,0.5-0.1,0.8
					c-0.3,1.8-0.5,3.7-0.3,5.5c0.1,0.9,0.2,1.8,0.4,2.7c0.2,0.9,0.4,1.7,0.9,2.6c0.6,1.4,1.4,2.6,2.2,3.7c0.9,1.1,1.9,2,3.1,2.8
					c0.2,0.1,0.4,0.3,0.6,0.4C107,206,107.2,206.1,107.5,206.3z"/>
				<path class="st102" d="M132.8,174c1.6,1.1,2.8,2.5,3.3,4.2c0.7,2.4,0.8,4.5,0.4,6.7c-0.2,0.9-0.8,1.7-1.3,2.4
					c-0.6,0.8-1.2,1.5-2,2.3l-0.6,0.5l-0.5,0.5c-0.4,0.4-0.8,0.7-1.2,1c-0.7,0.6-1.6,1.1-2.6,1.5c-1.5,0.5-2.9,0.5-4.4-0.2
					c-0.7-0.3-1.4-0.7-2-1.2c-0.6-0.4-1.2-0.9-1.8-1.4c-1.2-0.9-2.3-1.9-3.4-3c-1.7-1.7-3.5-3.3-5.4-4.8c0-0.1,0-0.2,0-0.2
					c0.3-0.8,0.2-1.5-0.2-2.2l-0.1-0.3c-0.3-0.7-0.3-1.1,0.3-1.6c0.1-0.1,0.3-0.2,0.4-0.3c0.6,0.2,1.3,0.4,1.9,0.6
					c2.6,0.6,5.2,1,7.9,0.9c1.2,0,2.5-0.2,3.6-0.5c0.6-0.1,1.1-0.3,1.7-0.5c0.6-0.2,1.1-0.4,1.6-0.7c0.8-0.4,1.5-0.9,2.2-1.4
					c0.3-0.3,0.6-0.6,0.9-0.9c0.3-0.3,0.6-0.6,0.8-0.9l0.4-0.5C132.7,174.1,132.8,174.1,132.8,174z"/>
				<path class="st102" d="M121,193.3c-0.3,1.2-0.5,2.4-0.8,3.6c-0.3,1-0.6,1.9-1.1,2.8c-0.2,0.4-0.5,0.9-0.8,1.3
					c-0.3,0.4-0.6,0.9-0.9,1.3c-1.4,1.6-3.1,2.6-5.4,2.9c-1.4,0.2-2.7-0.1-4-0.7c-1.4-0.7-2.5-1.8-3.5-3c-1-1.4-1.9-2.9-2.3-4.5
					c-0.2-0.8-0.4-1.7-0.5-2.5c-0.1-0.9-0.2-1.8-0.1-2.7c0.1-1.4,0.2-2.7,0.3-4.1c0.8-0.5,1.7-0.8,2.7-0.4c0.3,0.1,0.6,0.1,0.9,0.2
					c1.1,0,2-0.4,2.6-1.4c0.2-0.3,0.3-0.5,0.4-0.8c0.2-0.6,0.6-0.9,1.2-1.1c0.1,0,0.3-0.1,0.4-0.1c1.7,1.4,3.4,2.9,5,4.5
					c0.9,0.9,1.8,1.8,2.8,2.6c1,0.8,2,1.6,3.1,2.3C120.8,193.1,120.8,193.2,121,193.3z"/>
			</g>
			<g>
				<path class="st102" d="M221,99.8c-0.2-0.3-0.5-0.5-0.7-0.8c-0.9-1.2-2.1-2.2-3.3-3c-0.3-0.2-0.7-0.4-1-0.6
					c-0.3-0.2-0.7-0.3-1-0.5c-0.7-0.3-1.5-0.5-2.3-0.7c-2.9-0.8-5.9-0.9-8.9-0.5c-0.2,0-0.5,0.1-0.7,0.2c-0.2,0.1-0.5,0.1-0.8,0.2
					c0-0.2,0-0.4,0-0.5c-0.1-1-0.6-1.7-1.6-2.1c-0.4-0.1-0.8-0.2-1.2-0.3c-0.3-0.1-0.6-0.1-0.9-0.1c-0.7-0.1-1.1-0.4-1.4-0.9
					c-0.4-0.7-1-1.3-1.8-1.7c0.3-0.4,0.6-0.7,0.9-1c1.2-1.3,2.3-2.8,3.3-4.2c0.7-0.9,1.4-1.8,2.1-2.8c0.7-0.9,1.5-1.8,2.3-2.7
					c0.8-0.9,1.6-1.6,2.6-2.3c1-0.7,2.1-1.3,3.3-1.7c3-1.1,6.3-1.5,9.5-0.5c1.9,0.6,3.4,1.3,4.7,2.4c1.2,1.1,2.1,2.4,2.8,3.9
					c0.6,1.4,0.8,2.9,1,4.4c0.3,2,0.3,4,0,6.1c-0.4,3.1-1.9,5.7-4.3,7.8C222.6,98.4,221.8,99,221,99.8z"/>
				<path class="st102" d="M198.8,106.4c0.9-0.6,1.1-1.5,1.2-2.5c0-0.2,0.1-0.4,0.1-0.7c0-0.8,0.4-1.5,0.8-2.1
					c0.3-0.4,0.6-0.7,0.8-1.1c0.7-1,0.8-1.9,0.2-2.9c-0.1-0.2-0.2-0.5-0.4-0.8c0.3-0.1,0.6-0.1,0.8-0.2c1.5-0.3,3.1-0.4,4.6-0.4
					c1.5,0,3.1,0.1,4.6,0.5c1,0.3,2,0.6,3,1c1.4,0.6,2.6,1.5,3.5,2.6c1.2,1.5,2.4,3.1,3.5,4.6c0.9,1.4,1.6,2.9,1.8,4.6
					c0.3,2.3-0.3,4.4-2,6c-0.9,0.9-1.9,1.9-2.8,2.8c-0.7,0.7-1.4,1.3-2.2,1.7c-0.8,0.4-1.7,0.7-2.6,0.9c-1.4,0.2-2.9,0.2-4.3,0
					c-1-0.2-2-0.6-2.9-1.1c-0.9-0.6-1.7-1.2-2.5-2.1c-1.5-1.6-2.6-3.6-3.4-5.7c-0.4-1.1-0.8-2.2-1.1-3.2
					C199.3,107.7,199,107.1,198.8,106.4z"/>
				<path class="st102" d="M193.8,87.8c-0.2-0.2-0.4-0.3-0.5-0.5c-1.2-1-2.9-1-4.2,0.2c-0.3,0.3-0.6,0.7-0.9,1.1
					c-0.4,0.5-0.8,0.9-1.4,1.2c-0.9,0.5-1.7,1.1-2.2,1.9c-0.1,0.1-0.2,0.2-0.3,0.4c-0.5-0.3-0.9-0.5-1.4-0.8c-3.1-1.8-5.5-4.1-7-7.2
					c-1.3-2.6-1.8-5.4-1.3-8.3c0.3-1.6,1-3.1,2-4.5c0.5-0.7,1.1-1.4,1.9-1.9c0.7-0.6,1.5-1.1,2.5-1.7c2-1.1,4-2,6.2-2.4
					c1.1-0.2,2.2-0.4,3.3-0.5c1.1-0.1,2.2-0.1,3.4,0c2.4,0.2,4.3,1,5.8,2.2c0.9,0.7,1.6,1.5,2.1,2.4c0.5,0.9,0.8,1.8,1,2.8
					c0.1,0.8,0.3,1.7,0.4,2.5c0,0.1-0.1,0.3-0.2,0.4c-1.3,1.3-2.5,2.8-3.6,4.2c-1.1,1.5-2.1,2.9-3.1,4.4
					C195.5,85.1,194.7,86.4,193.8,87.8z"/>
				<path class="st102" d="M170.2,117.2c-1-0.2-1.9-0.4-2.7-0.8c-1.1-0.5-2.1-1.1-3-1.9c-1.8-1.5-3.3-3.2-4.4-5.2
					c-0.8-1.4-1.2-2.9-1.3-4.5c-0.1-2,0-4,0.8-6c0.7-1.9,1.6-3.8,2.5-5.7c0.4-0.8,0.9-1.5,1.4-2.3c0.6-0.7,1.2-1.3,2-1.9
					c1-0.8,2-1.4,3.1-1.9c1.1-0.5,2.3-0.7,3.5-0.9c0.5-0.1,0.9-0.1,1.4-0.2c0.5-0.1,0.9,0,1.1,0.4c0.5,0.7,1,1.5,1.6,2.1
					c1.8,2,4,3.5,6.6,4.5c0.2,0.1,0.4,0.2,0.6,0.3c-0.1,0.2-0.2,0.3-0.3,0.5c-0.8,1.1-1.1,2.2-0.6,3.3c0.1,0.3,0.3,0.6,0.4,0.9
					c0.2,0.5,0.2,1,0.1,1.5c-0.2,0.6-0.3,1.3-0.2,2c-0.3,0.1-0.5,0.2-0.7,0.3c-0.4,0.2-0.9,0.3-1.3,0.5c-0.4,0.2-0.8,0.4-1.3,0.6
					c-0.8,0.4-1.6,0.9-2.4,1.4c-1.5,1-2.8,2.2-3.9,3.7c-1.8,2.3-2.9,5-3,7.9c0,0.2,0,0.5,0,0.7C170.1,116.6,170.1,116.9,170.2,117.2
					z"/>
				<path class="st102" d="M210.7,123c-0.2,2-0.7,3.7-2,5c-1.7,1.7-3.5,3.1-5.6,3.7c-0.9,0.3-1.8,0.3-2.7,0.1
					c-2-0.3-3.9-0.7-5.9-1.5c-0.9-0.4-1.8-0.8-2.6-1.5c-1.2-1-1.9-2.3-2-4c-0.1-1.6,0-3.1,0.2-4.6c0.1-0.7,0.2-1.5,0.4-2.2
					c0.1-0.7,0.3-1.5,0.5-2.2c0.6-2.3,1.2-4.6,1.5-7c0.1,0,0.1-0.1,0.2-0.1c0.4-0.1,0.7-0.2,1.1-0.5c0.3-0.2,0.6-0.5,0.8-0.8
					l0.2-0.3c0.5-0.6,0.8-0.7,1.6-0.5c0.2,0.1,0.3,0.1,0.5,0.2c0.2,0.6,0.3,1.3,0.5,2c0.8,2.6,1.8,5,3.2,7.2
					c1.3,2.1,2.9,3.9,4.8,5.2c0.4,0.3,0.7,0.5,1.1,0.7c0.4,0.2,0.8,0.4,1.2,0.5c0.8,0.3,1.6,0.5,2.4,0.6l0.6,0.1
					C210.7,122.9,210.7,123,210.7,123z"/>
				<path class="st102" d="M188.1,122.3c-1.2,0.3-2.3,0.8-3.5,1.1c-0.5,0.1-1,0.2-1.5,0.3c-0.5,0.1-1,0.1-1.5,0.1
					c-1,0-2.1,0-3.1-0.3c-2.1-0.5-3.8-1.4-5.2-3.2c-0.8-1.1-1.3-2.4-1.4-3.8c0-0.8,0-1.6,0.2-2.3c0.1-0.8,0.4-1.5,0.7-2.2
					c0.7-1.6,1.6-3,2.8-4.3c0.6-0.7,1.2-1.2,1.9-1.7c0.7-0.5,1.5-1,2.3-1.4c1.2-0.7,2.5-1.2,3.7-1.8c0.8,0.5,1.6,1.1,1.7,2.1
					c0,0.3,0.2,0.6,0.3,0.9c0.5,1,1.4,1.5,2.5,1.5c0.3,0,0.6,0,0.9,0c0.6-0.1,1.1,0.1,1.6,0.5c0.1,0.1,0.2,0.2,0.3,0.3
					c-0.4,2.2-0.9,4.4-1.4,6.5c-0.6,2.5-1.2,5-1.3,7.5C188.2,122.1,188.1,122.2,188.1,122.3z"/>
			</g>
			<g>
				<path class="st102" d="M319.2,162.2c0.1-0.3,0.2-0.7,0.4-1c0.6-1.4,0.9-2.9,0.9-4.4c0-1.5-0.1-3.1-0.6-4.6
					c-0.4-1.4-1-2.8-1.6-4.2c-0.3-0.7-0.7-1.3-1.1-1.9c-0.4-0.6-0.9-1.2-1.3-1.8c-0.2-0.2-0.3-0.4-0.5-0.6c-0.2-0.2-0.3-0.4-0.5-0.6
					c0.2-0.1,0.3-0.2,0.4-0.3c0.8-0.5,1.2-1.4,1-2.5c-0.1-0.4-0.2-0.8-0.4-1.1c-0.1-0.3-0.3-0.6-0.4-0.9c-0.3-0.6-0.2-1.2,0.1-1.7
					c0.4-0.7,0.6-1.5,0.6-2.4c0.5,0.1,0.9,0.2,1.3,0.3c1.8,0.4,3.5,0.5,5.3,0.7c2.3,0.3,4.6,0.7,6.9,1.1c1.1,0.2,2.2,0.5,3.3,1
					c1.1,0.5,2.1,1.2,3.1,2c2.6,2,4.4,4.8,5.3,7.9c0.5,1.9,0.5,3.7,0.2,5.3c-0.3,1.6-0.9,3-1.9,4.3c-0.9,1.2-2.1,2.1-3.3,3
					c-1.6,1.2-3.4,2.3-5.2,3c-1.4,0.6-2.9,0.9-4.4,0.9c-0.7,0-1.5-0.1-2.2-0.2c-0.8-0.1-1.5-0.3-2.3-0.6
					C321.2,162.9,320.2,162.6,319.2,162.2z"/>
				<path class="st102" d="M302.3,146.3c0.9,0.4,1.9,0.2,2.8-0.2c0.2-0.1,0.4-0.2,0.6-0.3c0.7-0.4,1.5-0.4,2.3-0.3
					c0.5,0.1,0.9,0.1,1.4,0.1c1.2,0.1,2-0.3,2.6-1.3c0.1-0.2,0.3-0.5,0.5-0.7c0.2,0.2,0.4,0.4,0.5,0.6c1,1.2,1.9,2.5,2.7,3.8
					c0.8,1.3,1.4,2.8,1.8,4.2c0.3,1,0.5,2.1,0.6,3.1c0.2,1.5,0,3-0.5,4.3c-0.7,1.8-1.5,3.7-2.3,5.4c-0.7,1.5-1.7,2.8-3,3.8
					c-1.9,1.4-4,1.9-6.2,1.3c-1.3-0.4-2.5-0.7-3.8-1c-2-0.4-3.5-1.4-4.6-2.9c-0.9-1.1-1.7-2.3-2.1-3.7c-0.8-2-0.6-4.1,0.1-6.3
					c0.6-2.1,1.8-4,3.2-5.8c0.7-0.9,1.5-1.7,2.2-2.6C301.4,147.4,301.9,146.9,302.3,146.3z"/>
				<path class="st102" d="M315.9,132.7c0.1-0.3,0.1-0.5,0.1-0.7c0.2-1.6-0.7-3-2.3-3.5c-0.4-0.1-0.9-0.2-1.3-0.2
					c-0.6,0-1.2-0.2-1.8-0.6c-0.9-0.6-1.8-0.9-2.8-0.9c-0.1,0-0.3,0-0.5-0.1c0-0.6,0-1.1,0-1.6c0-3.6,0.8-6.8,2.7-9.7
					c1.6-2.4,3.7-4.2,6.6-5.3c1.5-0.6,3.2-0.7,4.9-0.5c1.7,0.2,3.4,0.9,5.3,1.9c1,0.6,1.9,1.2,2.8,1.9c0.8,0.7,1.6,1.5,2.4,2.3
					c0.7,0.8,1.4,1.7,2.1,2.6c0.6,0.9,1.2,1.9,1.6,3c1,2.2,1.4,4.2,1,6.1c-0.4,2.2-1.4,4-3,5.3c-0.7,0.5-1.3,1.1-2,1.6
					c-0.1,0.1-0.3,0.1-0.4,0.1c-1.8-0.4-3.6-0.8-5.4-1c-1.8-0.2-3.6-0.4-5.4-0.4C319,132.9,317.6,132.7,315.9,132.7z"/>
				<path class="st102" d="M278.6,126.9c-0.3-0.9-0.6-1.8-0.6-2.8c-0.1-1.2-0.1-2.4,0.2-3.6c0.4-2.3,1.1-4.5,2.3-6.4
					c0.8-1.4,1.9-2.5,3.2-3.4c1.6-1.1,3.5-2,5.6-2.3c2-0.3,4.1-0.6,6.2-0.7c1.8-0.1,3.5,0.2,5.3,0.9c1.1,0.5,2.2,1,3.2,1.8
					c0.9,0.8,1.8,1.6,2.6,2.6c0.3,0.4,0.6,0.7,0.9,1.1c0.4,0.4,0.4,0.7,0.2,1.2c-0.4,0.8-0.8,1.6-1.1,2.5c-0.8,2.5-1,5.2-0.6,8
					c0,0.2,0.1,0.4,0.1,0.6c-0.2,0-0.4,0-0.6-0.1c-1.3-0.1-2.4,0.2-3.2,1.2c-0.2,0.3-0.4,0.5-0.6,0.8c-0.3,0.4-0.7,0.7-1.2,0.8
					c-0.6,0.1-1.2,0.4-1.8,0.8c-0.2-0.2-0.4-0.3-0.6-0.5c-0.7-0.6-1.4-1.2-2.2-1.7c-0.8-0.5-1.6-0.9-2.4-1.3c-0.8-0.4-1.6-0.7-2.5-1
					c-0.9-0.2-1.8-0.4-2.7-0.5c-1.5-0.2-2.9-0.2-4.3,0c-1.4,0.2-2.8,0.7-4,1.3c-0.2,0.1-0.4,0.2-0.6,0.4
					C279.1,126.6,278.9,126.7,278.6,126.9z"/>
				<path class="st102" d="M293.9,165c-1.8,0.9-3.5,1.2-5.3,0.8c-1.2-0.3-2.3-0.7-3.3-1.2c-1-0.5-2-1.1-2.8-1.8
					c-0.3-0.3-0.6-0.7-0.8-1.1c-0.2-0.4-0.4-0.8-0.6-1.2c-0.4-0.9-0.7-1.9-1-2.9c-0.3-1-0.5-2-0.7-3c-0.2-1-0.2-2,0-3
					c0.3-1.5,1.1-2.8,2.4-3.7c1.3-0.9,2.7-1.5,4.2-2.1c1.4-0.5,2.8-1,4.3-1.4c2.3-0.6,4.6-1.3,6.9-2.3c0.1,0,0.1,0.1,0.2,0.1
					c0.5,0.6,1.2,0.9,2,1l0.3,0c0.8,0.1,1,0.3,1.2,1.1c0,0.2,0.1,0.3,0.1,0.5c-0.5,0.5-1,0.9-1.5,1.4c-0.9,1-1.8,2-2.6,3
					c-0.8,1.1-1.5,2.2-2.1,3.4c-1.2,2.2-1.9,4.5-2,6.8c-0.2,1.8,0.2,3.4,0.9,5l0.2,0.6C294,164.9,293.9,164.9,293.9,165z"/>
				<path class="st102" d="M283.2,145c-0.4-0.4-0.9-0.8-1.3-1.2c-0.5-0.4-0.9-0.8-1.4-1.2c-0.7-0.7-1.3-1.5-1.9-2.4
					c-0.5-0.9-1-1.8-1.4-2.8c-0.3-1-0.5-2-0.5-3c0-1,0.2-2,0.7-3.1c0.6-1.3,1.4-2.3,2.6-3.1c0.7-0.4,1.4-0.8,2.1-1
					c0.7-0.3,1.5-0.4,2.3-0.5c1.7-0.2,3.4-0.1,5.1,0.3c1.6,0.4,3.2,1.1,4.8,2.1c1.2,0.7,2.3,1.6,3.4,2.4c0,1-0.1,1.9-1,2.5
					c-0.2,0.2-0.4,0.5-0.6,0.7c-0.6,1-0.6,1.9-0.1,3c0.2,0.3,0.3,0.5,0.5,0.8c0.4,0.5,0.5,1,0.3,1.6c0,0.1-0.1,0.3-0.1,0.4
					c-2.1,0.8-4.2,1.5-6.3,2c-2.4,0.6-4.9,1.5-7.2,2.6C283.4,145,283.3,145,283.2,145z"/>
			</g>
		</g>
		<g>
			<path class="st103" d="M330.9,246.7c-0.2,0.1-0.5,0.2-0.7,0.3c-0.9,0.4-1.8,0.5-2.8,0.2c-0.2-0.1-0.4-0.1-0.6-0.1
				c-0.6-0.1-0.8-0.1-1,0.5c-0.5,1.3-1.4,2.3-2.8,2.6c0,0,0,0-0.1,0c-0.4,0.2-0.5,0.3-0.3,0.7c0.1,0.3,0.3,0.7,0.4,1
				c0.4,1.3,0.2,2.5-1,3.3c0,0-0.1,0.1-0.1,0.1c-0.3,0.3-0.3,0.4-0.1,0.7c0.2,0.3,0.5,0.5,0.8,0.7c1.2,0.8,2.1,1.9,2.6,3.4
				c0.4,1,0.4,1,1.4,1c1.1,0,1.9,0.4,2.6,1.3c0.1,0.1,0.2,0.2,0.3,0.4c0.6,0.7,0.7,0.7,1.3-0.1c0.3-0.4,0.6-0.8,1-1.1
				c0.7-0.8,1.5-1.2,2.5-1.3c0.3,0,0.7-0.1,1-0.2c0.3-0.1,0.6-0.2,0.8-0.5c0.5-0.6,1.1-1,1.8-1.1c0.2,0,0.4-0.1,0.6-0.2
				c0.4-0.2,0.5-0.4,0.3-0.8c-0.1-0.3-0.2-0.7-0.4-1c-0.4-0.8-0.6-1.6-0.5-2.5c0.1-0.8-0.1-1.6-0.5-2.2c-0.3-0.6-0.5-1.3-0.6-2.1
				c0-0.3-0.1-0.6-0.3-0.8c-0.4-0.6-0.9-0.7-1.5-0.7c-1.2,0-2.2-0.4-3-1.3c-0.1-0.1-0.3-0.2-0.4-0.4c-0.1-0.1-0.2-0.1-0.3-0.2
				C331.2,246.6,331,246.7,330.9,246.7z M330.3,251.6c0,0.2-0.1,0.4-0.1,0.6c-0.5,1.2-2.2,1.8-3.2,1.2c-0.6-0.4-1.2-1-1.2-1.8
				c0-1.3,1.1-2.3,2.5-2.2c0.1,0,0.3,0,0.4,0.1C329.7,249.6,330.4,250.5,330.3,251.6z M335.5,251.2c0.3,0.6,0.3,1.3,0,1.9
				c-0.6,1.3-2.7,1.7-3.6,0.5c-0.5-0.7-0.6-1.7-0.1-2.5c0.5-0.8,1.4-1.2,2.5-0.9C334.8,250.2,335.2,250.6,335.5,251.2z M328.6,257.4
				c0.4-1.1,1.6-1.8,2.7-1.4c1,0.3,1.6,1.6,1.3,2.7c-0.4,1.1-1.8,1.7-2.9,1.3C328.6,259.5,328.2,258.4,328.6,257.4z M324.5,256.1
				c-0.1-0.7,0.2-1.2,0.7-1.6c0.6-0.5,1.3-0.6,2-0.3c0.6,0.3,0.9,0.9,0.9,1.6c0,0.4-0.2,0.7-0.3,1c-0.2,0.3-0.5,0.5-0.9,0.6
				c-0.4,0.2-0.9,0.1-1.3,0C324.9,257.2,324.5,256.8,324.5,256.1z M336.8,256.9c-0.3,0.7-1,1.1-1.7,0.8c-0.6-0.2-0.9-1-0.6-1.6
				c0.3-0.7,1-1,1.7-0.8C336.7,255.5,337,256.2,336.8,256.9z"/>
			<path class="st103" d="M246.8,330.8c-0.2-0.2-0.4-0.3-0.6-0.5c-0.8-0.6-1.3-1.3-1.5-2.3c0-0.2-0.1-0.4-0.2-0.6
				c-0.2-0.6-0.3-0.7-1-0.6c-1.4,0.2-2.7-0.1-3.6-1.1c0,0,0,0,0,0c-0.4-0.3-0.5-0.3-0.8,0.1c-0.2,0.3-0.4,0.6-0.7,0.8
				c-0.9,0.9-2.1,1.4-3.4,0.8c-0.1,0-0.1,0-0.2-0.1c-0.4-0.1-0.5-0.1-0.6,0.3c-0.1,0.3-0.2,0.7-0.2,1.1c-0.1,1.5-0.6,2.8-1.6,3.9
				c-0.7,0.8-0.7,0.8-0.2,1.7c0.5,0.9,0.6,1.9,0.2,2.9c-0.1,0.1-0.1,0.3-0.2,0.4c-0.3,0.8-0.2,0.9,0.7,1.1c0.5,0.1,1,0.2,1.5,0.3
				c1,0.2,1.8,0.7,2.3,1.5c0.2,0.3,0.4,0.6,0.7,0.8c0.2,0.2,0.5,0.3,0.8,0.4c0.8,0.2,1.4,0.5,1.8,1.1c0.1,0.2,0.3,0.3,0.4,0.4
				c0.3,0.2,0.6,0.2,0.9-0.1c0.2-0.2,0.5-0.5,0.7-0.8c0.5-0.7,1.1-1.3,1.9-1.7c0.7-0.4,1.3-0.9,1.7-1.5c0.4-0.6,0.9-1.1,1.5-1.5
				c0.2-0.1,0.4-0.4,0.5-0.6c0.3-0.6,0.1-1.2-0.2-1.7c-0.5-1-0.7-2.1-0.4-3.2c0.1-0.2,0.1-0.4,0.1-0.6c0-0.1,0-0.2,0-0.4
				C247.1,331.1,247,330.9,246.8,330.8z M242.3,332.7c-0.2,0.1-0.4,0.2-0.6,0.2c-0.7,0.1-1.3-0.1-1.8-0.5c-0.5-0.4-0.8-1-0.8-1.6
				c0-0.8,0.3-1.5,1-2c1.1-0.7,2.6-0.2,3.2,1c0.1,0.1,0.1,0.3,0.1,0.3C243.7,331.3,243.3,332.3,242.3,332.7z M245.3,337.1
				c-0.3,0.6-0.9,0.9-1.7,0.9c-1.4,0.1-2.8-1.4-2.2-2.8c0.4-0.9,1.2-1.4,2.2-1.4c1,0,1.8,0.7,2.1,1.7
				C245.7,336,245.6,336.5,245.3,337.1z M236.5,334.1c1.2-0.2,2.4,0.5,2.6,1.7c0.2,1.1-0.6,2.2-1.7,2.4c-1.2,0.2-2.4-0.6-2.6-1.8
				C234.6,335.3,235.3,334.4,236.5,334.1z M235.5,329.9c0.6-0.4,1.1-0.4,1.8-0.2c0.7,0.3,1.1,0.8,1.2,1.6c0.1,0.7-0.3,1.2-1,1.5
				c-0.7,0.3-1.4,0.3-2-0.2c-0.4-0.3-0.5-0.7-0.7-1.1C234.7,330.9,234.9,330.4,235.5,329.9z M241,341.1c-0.8,0.1-1.5-0.4-1.6-1.1
				c-0.1-0.6,0.4-1.2,1.1-1.3c0.7-0.1,1.3,0.3,1.5,1.1C242.1,340.4,241.7,341,241,341.1z"/>
			<path class="st103" d="M132,300.1c0-0.2,0.1-0.5,0.1-0.7c0.1-1,0.5-1.8,1.2-2.5c0.2-0.1,0.3-0.3,0.4-0.4c0.4-0.5,0.4-0.6,0-1.2
				c-0.9-1.1-1.3-2.3-0.9-3.7c0,0,0,0,0-0.1c0.1-0.5,0-0.6-0.5-0.7c-0.4-0.1-0.7-0.1-1.1-0.2c-1.3-0.3-2.2-1.1-2.4-2.5
				c0-0.1,0-0.1,0-0.2c-0.1-0.4-0.2-0.5-0.6-0.4c-0.3,0.1-0.7,0.2-1,0.4c-1.3,0.6-2.7,0.8-4.2,0.6c-1-0.2-1.1-0.2-1.6,0.7
				c-0.5,0.9-1.3,1.5-2.4,1.6c-0.2,0-0.3,0-0.5,0.1c-0.9,0.2-0.9,0.3-0.6,1.1c0.2,0.5,0.4,0.9,0.5,1.4c0.3,1,0.3,1.9-0.2,2.8
				c-0.1,0.3-0.3,0.6-0.3,1c0,0.3-0.1,0.6,0,0.9c0.3,0.8,0.3,1.5,0,2.1c-0.1,0.2-0.1,0.4-0.1,0.6c0,0.4,0.1,0.6,0.5,0.7
				c0.3,0.1,0.7,0.1,1,0.2c0.8,0.1,1.6,0.3,2.4,0.8c0.7,0.5,1.4,0.7,2.2,0.7c0.7,0,1.4,0.2,2.1,0.5c0.2,0.1,0.5,0.2,0.8,0.1
				c0.7,0,1-0.5,1.4-1c0.6-1,1.4-1.7,2.6-1.9c0.2,0,0.4-0.1,0.5-0.2c0.1,0,0.2-0.1,0.3-0.2C131.9,300.4,131.9,300.3,132,300.1z
				 M128.1,297.2c-0.2-0.1-0.3-0.2-0.5-0.4c-0.8-1.1-0.5-2.8,0.6-3.4c0.7-0.3,1.4-0.5,2.2-0.1c1.2,0.6,1.5,2.1,0.7,3.2
				c-0.1,0.1-0.2,0.2-0.2,0.3C130.1,297.6,129,297.8,128.1,297.2z M125.8,301.9c-0.7,0-1.3-0.4-1.7-1c-0.8-1.1-0.1-3.2,1.3-3.3
				c0.9-0.1,1.8,0.3,2.3,1.2c0.5,0.8,0.3,1.9-0.5,2.7C127,301.7,126.4,301.9,125.8,301.9z M123.9,292.8c0.8,0.9,0.8,2.3-0.1,3.1
				c-0.8,0.7-2.2,0.6-3-0.2c-0.8-0.9-0.6-2.4,0.3-3.2C122,291.8,123.1,291.9,123.9,292.8z M127.1,289.9c0.6,0.3,1,0.8,1,1.4
				c0.1,0.8-0.1,1.4-0.8,1.8c-0.6,0.4-1.2,0.3-1.8-0.1c-0.7-0.5-0.9-1.1-0.8-1.8c0.1-0.5,0.3-0.8,0.6-1.1
				C125.8,289.7,126.4,289.6,127.1,289.9z M120.2,300.1c-0.5-0.6-0.4-1.4,0.1-1.9c0.5-0.4,1.3-0.3,1.7,0.3c0.5,0.6,0.4,1.3-0.2,1.8
				C121.4,300.8,120.7,300.7,120.2,300.1z"/>
			<path class="st103" d="M101.1,185.3c0.2-0.1,0.5-0.2,0.7-0.3c0.9-0.4,1.8-0.5,2.8-0.2c0.2,0.1,0.4,0.1,0.6,0.1
				c0.6,0.1,0.8,0.1,1-0.5c0.5-1.3,1.4-2.3,2.8-2.6c0,0,0,0,0.1,0c0.4-0.2,0.5-0.3,0.3-0.7c-0.1-0.3-0.3-0.7-0.4-1
				c-0.4-1.3-0.2-2.5,1-3.3c0,0,0.1-0.1,0.1-0.1c0.3-0.3,0.3-0.4,0.1-0.7c-0.2-0.3-0.5-0.5-0.8-0.7c-1.2-0.8-2.1-1.9-2.6-3.4
				c-0.4-1-0.4-1-1.4-1c-1.1,0-1.9-0.4-2.6-1.3c-0.1-0.1-0.2-0.2-0.3-0.4c-0.6-0.7-0.7-0.7-1.3,0.1c-0.3,0.4-0.6,0.8-1,1.1
				c-0.7,0.8-1.5,1.2-2.5,1.3c-0.3,0-0.7,0.1-1,0.2c-0.3,0.1-0.6,0.2-0.8,0.5c-0.5,0.6-1.1,1-1.8,1.1c-0.2,0-0.4,0.1-0.6,0.2
				c-0.4,0.2-0.5,0.4-0.3,0.8c0.1,0.3,0.2,0.7,0.4,1c0.4,0.8,0.6,1.6,0.5,2.5c-0.1,0.8,0.1,1.6,0.5,2.2c0.3,0.6,0.5,1.3,0.6,2.1
				c0,0.3,0.1,0.6,0.3,0.8c0.4,0.6,0.9,0.7,1.5,0.7c1.2,0,2.2,0.4,3,1.3c0.1,0.1,0.3,0.2,0.4,0.4c0.1,0.1,0.2,0.1,0.3,0.2
				C100.8,185.4,101,185.3,101.1,185.3z M101.7,180.4c0-0.2,0.1-0.4,0.1-0.6c0.5-1.2,2.2-1.8,3.2-1.2c0.6,0.4,1.2,1,1.2,1.8
				c0,1.3-1.1,2.3-2.5,2.2c-0.1,0-0.3,0-0.4-0.1C102.3,182.4,101.6,181.5,101.7,180.4z M96.5,180.8c-0.3-0.6-0.3-1.3,0-1.9
				c0.6-1.3,2.7-1.7,3.6-0.5c0.5,0.7,0.6,1.7,0.1,2.5c-0.5,0.8-1.4,1.2-2.5,0.9C97.2,181.8,96.8,181.4,96.5,180.8z M103.4,174.6
				c-0.4,1.1-1.6,1.8-2.7,1.4c-1-0.3-1.6-1.6-1.3-2.7c0.4-1.1,1.8-1.7,2.9-1.3C103.4,172.5,103.8,173.6,103.4,174.6z M107.5,175.9
				c0.1,0.7-0.2,1.2-0.7,1.6c-0.6,0.5-1.3,0.6-2,0.3c-0.6-0.3-0.9-0.9-0.9-1.6c0-0.4,0.2-0.7,0.3-1c0.2-0.3,0.5-0.5,0.9-0.6
				c0.4-0.2,0.9-0.1,1.3,0C107.1,174.8,107.5,175.2,107.5,175.9z M95.2,175.1c0.3-0.7,1-1.1,1.7-0.8c0.6,0.2,0.9,1,0.6,1.6
				c-0.3,0.7-1,1-1.7,0.8C95.3,176.5,95,175.8,95.2,175.1z"/>
			<path class="st103" d="M185.2,101.2c0.2,0.2,0.4,0.3,0.6,0.5c0.8,0.6,1.3,1.3,1.5,2.3c0,0.2,0.1,0.4,0.2,0.6
				c0.2,0.6,0.3,0.7,1,0.6c1.4-0.2,2.7,0.1,3.6,1.1c0,0,0,0,0,0c0.4,0.3,0.5,0.3,0.8-0.1c0.2-0.3,0.4-0.6,0.7-0.8
				c0.9-0.9,2.1-1.4,3.4-0.8c0.1,0,0.1,0,0.2,0.1c0.4,0.1,0.5,0.1,0.6-0.3c0.1-0.3,0.2-0.7,0.2-1.1c0.1-1.5,0.6-2.8,1.6-3.9
				c0.7-0.8,0.7-0.8,0.2-1.7c-0.5-0.9-0.6-1.9-0.2-2.9c0.1-0.1,0.1-0.3,0.2-0.4c0.3-0.8,0.2-0.9-0.7-1.1c-0.5-0.1-1-0.2-1.5-0.3
				c-1-0.2-1.8-0.7-2.3-1.5c-0.2-0.3-0.4-0.6-0.7-0.8c-0.2-0.2-0.5-0.4-0.8-0.4c-0.8-0.2-1.4-0.5-1.8-1.1c-0.1-0.2-0.3-0.3-0.4-0.4
				c-0.3-0.2-0.6-0.2-0.9,0.1c-0.2,0.2-0.5,0.5-0.7,0.8c-0.5,0.7-1.1,1.3-1.9,1.7c-0.7,0.4-1.3,0.9-1.7,1.5
				c-0.4,0.6-0.9,1.1-1.5,1.5c-0.2,0.1-0.4,0.4-0.5,0.6c-0.3,0.6-0.1,1.2,0.2,1.7c0.5,1,0.7,2.1,0.4,3.2c-0.1,0.2-0.1,0.4-0.1,0.6
				c0,0.1,0,0.2,0,0.4C184.9,100.9,185,101.1,185.2,101.2z M189.7,99.3c0.2-0.1,0.4-0.2,0.6-0.2c0.7-0.1,1.3,0.1,1.8,0.5
				c0.5,0.4,0.8,1,0.8,1.6c0,0.8-0.3,1.5-1,2c-1.1,0.7-2.6,0.2-3.2-1c-0.1-0.1-0.1-0.3-0.1-0.3C188.3,100.7,188.7,99.7,189.7,99.3z
				 M186.7,94.9c0.3-0.6,0.9-0.9,1.7-0.9c1.4-0.1,2.8,1.4,2.2,2.8c-0.4,0.9-1.2,1.4-2.2,1.4c-1,0-1.8-0.7-2.1-1.7
				C186.3,96,186.4,95.5,186.7,94.9z M195.5,97.9c-1.2,0.2-2.4-0.5-2.6-1.7c-0.2-1.1,0.6-2.2,1.7-2.4c1.2-0.2,2.4,0.6,2.6,1.8
				C197.4,96.7,196.7,97.6,195.5,97.9z M196.5,102.1c-0.6,0.4-1.1,0.4-1.8,0.2c-0.7-0.3-1.1-0.8-1.2-1.6c-0.1-0.7,0.3-1.2,1-1.5
				c0.7-0.3,1.4-0.3,2,0.2c0.4,0.3,0.5,0.7,0.7,1.1C197.3,101.1,197.1,101.6,196.5,102.1z M191,90.9c0.8-0.1,1.5,0.4,1.6,1.1
				c0.1,0.6-0.4,1.2-1.1,1.3c-0.7,0.1-1.3-0.3-1.5-1.1C189.9,91.6,190.3,91,191,90.9z"/>
			<path class="st103" d="M300,131.9c0,0.2-0.1,0.5-0.1,0.7c-0.1,1-0.5,1.8-1.2,2.5c-0.2,0.1-0.3,0.3-0.4,0.4
				c-0.4,0.5-0.4,0.6,0,1.2c0.9,1.1,1.3,2.3,0.9,3.7c0,0,0,0,0,0.1c-0.1,0.5,0,0.6,0.5,0.7c0.4,0.1,0.7,0.1,1.1,0.2
				c1.3,0.3,2.2,1.1,2.4,2.5c0,0.1,0,0.1,0,0.2c0.1,0.4,0.2,0.5,0.6,0.4c0.3-0.1,0.7-0.2,1-0.4c1.3-0.6,2.7-0.8,4.2-0.6
				c1,0.2,1.1,0.2,1.6-0.7c0.5-0.9,1.3-1.5,2.4-1.6c0.2,0,0.3,0,0.5-0.1c0.9-0.2,0.9-0.3,0.6-1.1c-0.2-0.5-0.4-0.9-0.5-1.4
				c-0.3-1-0.3-1.9,0.2-2.8c0.1-0.3,0.3-0.6,0.3-1c0-0.3,0.1-0.6,0-0.9c-0.3-0.8-0.3-1.5,0-2.1c0.1-0.2,0.1-0.4,0.1-0.6
				c0-0.4-0.1-0.6-0.5-0.7c-0.3-0.1-0.7-0.1-1-0.2c-0.8-0.1-1.6-0.3-2.4-0.8c-0.7-0.5-1.4-0.7-2.2-0.7c-0.7,0-1.4-0.2-2.1-0.5
				c-0.2-0.1-0.5-0.2-0.8-0.1c-0.7,0-1,0.5-1.4,1c-0.6,1-1.4,1.7-2.6,1.9c-0.2,0-0.4,0.1-0.5,0.2c-0.1,0-0.2,0.1-0.3,0.2
				C300.1,131.6,300.1,131.7,300,131.9z M303.9,134.8c0.2,0.1,0.3,0.2,0.5,0.4c0.8,1.1,0.5,2.8-0.6,3.4c-0.7,0.3-1.4,0.5-2.2,0.1
				c-1.2-0.6-1.5-2.1-0.7-3.2c0.1-0.1,0.2-0.2,0.2-0.3C301.9,134.4,303,134.2,303.9,134.8z M306.2,130.1c0.7,0,1.3,0.4,1.7,1
				c0.8,1.1,0.1,3.2-1.3,3.3c-0.9,0.1-1.8-0.3-2.3-1.2c-0.5-0.8-0.3-1.9,0.5-2.7C305,130.3,305.6,130.1,306.2,130.1z M308.1,139.2
				c-0.8-0.9-0.8-2.3,0.1-3.1c0.8-0.7,2.2-0.6,3,0.2c0.8,0.9,0.6,2.4-0.3,3.2C310,140.2,308.9,140.1,308.1,139.2z M304.9,142.1
				c-0.6-0.3-1-0.8-1-1.4c-0.1-0.8,0.1-1.4,0.8-1.8c0.6-0.4,1.2-0.3,1.8,0.1c0.7,0.5,0.9,1.1,0.8,1.8c-0.1,0.5-0.3,0.8-0.6,1.1
				C306.2,142.3,305.6,142.4,304.9,142.1z M311.8,131.9c0.5,0.6,0.4,1.4-0.1,1.9c-0.5,0.4-1.3,0.3-1.7-0.3c-0.5-0.6-0.4-1.3,0.2-1.8
				C310.6,131.2,311.3,131.3,311.8,131.9z"/>
		</g>
	</g>
	<g>
		<g>
			<path class="st104" d="M280.4,327.4c0.1-1.6,0.5-3.2,1-4.8c0.7-2.2,1.4-4.3,2.2-6.4c0.8-2.1,1.6-4.1,2.5-6.1c0.9-2,1.8-4,2.9-5.8
				c0.5-1,1-1.9,1.5-2.9c0.3-0.5,0.5-0.9,0.8-1.4c0.3-0.5,0.6-0.9,0.8-1.4c0.9-1.5,1.8-2.9,2.7-4.3c0.9-1.4,1.9-2.8,2.9-4.1
				c0.9-1.2,1.8-2.2,2.9-3.2l1.6-1.4c0.5-0.5,1.1-0.9,1.7-1.4c0.7-0.5,1.5-0.9,2.3-1.3c0.8-0.4,1.6-0.6,2.5-0.9
				c0.5-0.2,0.8,0.1,1.2,0.4c1.9,1.9,3.2,4.3,3.8,7c1.4,6.9,0.6,14.3-3.1,21.5c-0.9,1.7-2,3.4-3.3,5c-1.3,1.5-2.8,2.9-4.4,4.2
				c-6,4.8-12.9,7.5-20,7.7C281.6,327.9,281.1,327.8,280.4,327.4z"/>
			<path class="st104" d="M151.6,327.4c1.4-0.7,3-1.2,4.6-1.5c9-2,17.5-2.8,26.2-2.6c1.7,0,3.4,0,5.1,0.2c0.8,0.1,1.7,0.1,2.5,0.2
				c0.8,0.1,1.7,0.2,2.5,0.3c1.4,0.3,2.8,0.5,4.2,0.9c0.7,0.2,1.4,0.4,2,0.7c0.7,0.3,1.4,0.5,2,0.8c0.8,0.3,1.6,0.8,2.3,1.3
				c0.7,0.5,1.4,1.2,2,1.7c0.4,0.4,0.4,0.7,0.2,1.2c-0.3,1.3-0.9,2.6-1.5,3.7c-0.7,1.1-1.6,2.1-2.6,3.1c-1.3,1.2-2.7,2.3-4.2,3.2
				c-1.5,0.9-3.1,1.7-4.8,2.4c-0.8,0.3-1.7,0.7-2.6,1c-0.9,0.3-1.8,0.5-2.7,0.7c-0.9,0.2-1.9,0.4-2.9,0.5c-0.5,0.1-1,0.1-1.5,0.2
				c-0.5,0-1,0.1-1.5,0.1c-2,0.1-4,0-6-0.4c-2-0.4-3.9-0.9-5.9-1.6c-7.2-2.8-13-7.5-16.7-13.5C151.9,328.8,151.7,328.3,151.6,327.4z
				"/>
			<path class="st104" d="M87.3,216c1.4,0.9,2.6,2,3.7,3.2c6.2,6.7,11.1,13.7,15.3,21.4c1.6,3,3.2,5.9,4.4,9c0.6,1.3,1,2.7,1.3,4.1
				c0.4,1.4,0.6,2.8,0.8,4.2c0.2,1.8-0.1,3.5-0.5,5.2c-0.1,0.5-0.5,0.7-0.9,0.8c-2.6,0.7-5.3,0.7-8-0.2c-1.7-0.5-3.3-1.2-4.8-2.1
				c-1.6-0.8-3.1-1.8-4.5-2.9c-1.4-1.1-2.8-2.4-4.1-3.8c-1.2-1.4-2.4-3-3.5-4.7c-2.1-3.3-3.5-7.2-4.1-11.2c-0.1-1-0.3-1.9-0.4-2.8
				c-0.1-0.9-0.1-1.9-0.1-2.8c0-1.9,0.1-3.7,0.4-5.5c0.3-1.8,0.7-3.5,1.2-5.2c0.6-1.7,1.3-3.3,2.2-4.9
				C86.3,216.8,86.6,216.4,87.3,216z"/>
			<path class="st104" d="M151.6,104.6c-0.1,1.6-0.5,3.2-1,4.8c-0.7,2.2-1.4,4.3-2.2,6.4c-0.8,2.1-1.6,4.1-2.5,6.1
				c-0.9,2-1.8,4-2.9,5.8c-0.5,1-1,1.9-1.5,2.9c-0.3,0.5-0.5,0.9-0.8,1.4c-0.3,0.5-0.6,0.9-0.8,1.4c-0.9,1.5-1.8,2.9-2.7,4.3
				c-0.9,1.4-1.9,2.8-2.9,4.1c-0.9,1.2-1.8,2.2-2.9,3.2l-1.6,1.4c-0.5,0.5-1.1,0.9-1.7,1.4c-0.7,0.5-1.5,0.9-2.3,1.3
				c-0.8,0.4-1.6,0.6-2.5,0.9c-0.5,0.2-0.8-0.1-1.2-0.4c-1.9-1.9-3.2-4.3-3.8-7c-1.4-6.9-0.6-14.3,3.1-21.5c0.9-1.7,2-3.4,3.3-5
				c1.3-1.5,2.8-2.9,4.4-4.2c6-4.8,12.9-7.5,20-7.7C150.4,104.1,150.9,104.2,151.6,104.6z"/>
			<path class="st104" d="M280.4,104.6c-1.4,0.7-3,1.2-4.6,1.5c-9,2-17.5,2.8-26.2,2.6c-1.7,0-3.4,0-5.1-0.2
				c-0.8-0.1-1.7-0.1-2.5-0.2c-0.8-0.1-1.7-0.2-2.5-0.3c-1.4-0.3-2.8-0.5-4.2-0.9c-0.7-0.2-1.4-0.4-2-0.7c-0.7-0.3-1.4-0.5-2-0.8
				c-0.8-0.3-1.6-0.8-2.3-1.3c-0.7-0.5-1.4-1.2-2-1.7c-0.4-0.4-0.4-0.7-0.2-1.2c0.3-1.3,0.9-2.6,1.5-3.7c0.7-1.1,1.6-2.1,2.6-3.1
				c1.3-1.2,2.7-2.3,4.2-3.2c1.5-0.9,3.1-1.7,4.8-2.4c0.8-0.3,1.7-0.7,2.6-1c0.9-0.3,1.8-0.5,2.7-0.7c0.9-0.2,1.9-0.4,2.9-0.5
				c0.5-0.1,1-0.1,1.5-0.2c0.5,0,1-0.1,1.5-0.1c2-0.1,4,0,6,0.4c2,0.4,3.9,0.9,5.9,1.6c7.2,2.8,13,7.5,16.7,13.5
				C280.1,103.2,280.3,103.7,280.4,104.6z"/>
			<path class="st104" d="M344.7,216c-1.4-0.9-2.6-2-3.7-3.2c-6.2-6.7-11.1-13.7-15.3-21.4c-1.6-3-3.2-5.9-4.4-9
				c-0.6-1.3-1-2.7-1.3-4.1c-0.4-1.4-0.6-2.8-0.8-4.2c-0.2-1.8,0.1-3.5,0.5-5.2c0.1-0.5,0.5-0.7,0.9-0.8c2.6-0.7,5.3-0.7,8,0.2
				c1.7,0.5,3.3,1.2,4.8,2.1c1.6,0.8,3.1,1.8,4.5,2.9c1.4,1.1,2.8,2.4,4.1,3.8c1.2,1.4,2.4,3,3.5,4.7c2.1,3.4,3.5,7.2,4.1,11.2
				c0.1,1,0.3,1.9,0.4,2.8c0.1,0.9,0.1,1.9,0.1,2.8c0,1.9-0.1,3.7-0.4,5.5c-0.3,1.8-0.7,3.5-1.2,5.2c-0.6,1.7-1.3,3.3-2.2,4.9
				C345.7,215.2,345.4,215.6,344.7,216z"/>
		</g>
		<g>
			<path class="st99" d="M266.4,283.9c0.6-0.7,1.2-1.4,2-1.9c4.2-2.8,8.8-4.6,14.5-5.7c1.1-0.2,2.2-0.4,3.3-0.6
				c0.6-0.1,1.1-0.1,1.7-0.2c0.6-0.1,1.2-0.1,1.7-0.1c2-0.1,4.1,0.1,6.3,0.6c1.3,0.3,2.5,0.9,3.6,1.7c0.3,0.2,0.4,0.5,0.4,0.8
				c-0.1,2-0.8,3.8-1.9,5.5c-1.5,2-3.2,3.8-5.2,5.1c-1.9,1.4-4.2,2.4-6.6,3.1c-0.6,0.2-1.2,0.3-1.8,0.3c-0.6,0.1-1.2,0.1-1.8,0.1
				c-1.2,0-2.4-0.1-3.6-0.4c-4.5-1.1-8.3-3.3-11.6-6.9C266.8,284.7,266.6,284.4,266.4,283.9z"/>
			<path class="st99" d="M182.5,293.6c0.2,0,0.4,0.1,0.7,0.1c0.2,0,0.4,0.1,0.7,0.2c0.4,0.1,0.9,0.3,1.3,0.5
				c0.6,0.3,1.1,0.6,1.7,0.9c0.5,0.3,1.1,0.6,1.6,0.9c1.1,0.6,2.1,1.5,3.1,2.2c1,0.8,2,1.7,2.9,2.6c1,0.9,1.9,1.9,2.8,3l0.5,0.7
				l0.5,0.6c0.4,0.4,0.7,0.9,1.1,1.3c0.7,0.9,1.4,1.8,2,2.9c1.1,1.7,2,3.6,2.7,5.7c0.4,1.3,0.4,2.6,0.3,4c0,0.4-0.2,0.6-0.5,0.7
				c-0.9,0.5-1.8,0.8-2.8,1c-0.5,0.1-1,0.2-1.4,0.2c-0.5,0-1,0-1.5-0.1c-1.2-0.1-2.5-0.3-3.7-0.6c-1.2-0.4-2.3-0.8-3.4-1.3
				c-0.5-0.3-1.1-0.5-1.6-0.8c-0.5-0.3-1-0.7-1.5-1c-1-0.7-1.9-1.5-2.8-2.3c-1.7-1.8-2.9-3.8-3.6-6.2c-1.3-4.5-1.3-8.8,0.2-13.5
				C181.9,294.4,182.1,294.1,182.5,293.6z"/>
			<path class="st99" d="M132,225.8c0.4,0.9,0.5,1.7,0.6,2.7c0.4,5-0.4,9.9-2.3,15.3c-0.7,2.1-1.6,4.2-2.6,6.3
				c-0.9,1.8-2.2,3.6-3.6,5.2c-0.9,1-2,1.7-3.2,2.3c-0.4,0.2-0.6,0.1-0.9-0.1c-0.9-0.5-1.6-1.2-2.2-1.9c-0.6-0.7-1.2-1.6-1.6-2.5
				c-0.5-1.1-0.9-2.3-1.2-3.5c-0.2-0.6-0.3-1.2-0.4-1.8c-0.1-0.6-0.2-1.2-0.2-1.8c-0.1-1.2-0.1-2.4,0-3.6c0.1-1.2,0.4-2.4,0.7-3.6
				c0.3-1.2,0.8-2.3,1.4-3.3c0.6-1,1.3-2,2.2-2.9c1.5-1.7,3.3-3.1,5.3-4.1c2-1.1,4.1-1.9,6.4-2.4C131.1,225.7,131.4,225.7,132,225.8
				z"/>
			<path class="st99" d="M165.6,148.1c-0.6,0.7-1.2,1.4-2,1.9c-4.2,2.8-8.8,4.6-14.5,5.7c-1.1,0.2-2.2,0.4-3.3,0.6
				c-0.6,0.1-1.1,0.1-1.7,0.2c-0.6,0.1-1.2,0.1-1.7,0.1c-2,0.1-4.1-0.1-6.3-0.6c-1.3-0.3-2.5-0.9-3.6-1.7c-0.3-0.2-0.4-0.5-0.4-0.8
				c0.1-2,0.8-3.8,1.9-5.5c1.5-2,3.2-3.8,5.2-5.1c1.9-1.4,4.2-2.4,6.6-3.1c0.6-0.2,1.2-0.3,1.8-0.3c0.6-0.1,1.2-0.1,1.8-0.1
				c1.2,0,2.4,0.1,3.6,0.4c4.5,1.1,8.3,3.3,11.6,6.9C165.2,147.3,165.4,147.6,165.6,148.1z"/>
			<path class="st99" d="M249.5,138.4c-0.2,0-0.4-0.1-0.7-0.1c-0.2,0-0.4-0.1-0.7-0.2c-0.4-0.1-0.9-0.3-1.3-0.5
				c-0.6-0.3-1.1-0.6-1.7-0.9c-0.5-0.3-1.1-0.6-1.6-0.9c-1.1-0.6-2.1-1.5-3.1-2.2c-1-0.8-2-1.7-2.9-2.6c-1-0.9-1.9-1.9-2.8-3
				l-0.5-0.7l-0.5-0.6c-0.4-0.4-0.7-0.9-1.1-1.3c-0.7-0.9-1.4-1.8-2-2.9c-1.1-1.7-2-3.6-2.7-5.7c-0.4-1.3-0.4-2.6-0.3-4
				c0-0.4,0.2-0.6,0.5-0.7c0.9-0.5,1.8-0.8,2.8-1c0.5-0.1,1-0.2,1.4-0.2c0.5,0,1,0,1.5,0.1c1.2,0.1,2.5,0.3,3.7,0.6
				c1.2,0.4,2.3,0.8,3.4,1.3c0.5,0.3,1.1,0.5,1.6,0.8c0.5,0.3,1,0.7,1.5,1c1,0.7,1.9,1.5,2.8,2.3c1.7,1.8,2.9,3.8,3.6,6.2
				c1.3,4.5,1.3,8.8-0.2,13.5C250.1,137.6,249.9,137.9,249.5,138.4z"/>
			<path class="st99" d="M300,206.2c-0.4-0.9-0.5-1.7-0.6-2.7c-0.4-5,0.4-9.9,2.3-15.3c0.7-2.1,1.6-4.2,2.6-6.3
				c0.9-1.8,2.2-3.6,3.6-5.2c0.9-1,2-1.7,3.2-2.3c0.4-0.2,0.6-0.1,0.9,0.1c0.9,0.5,1.6,1.2,2.2,1.9c0.6,0.7,1.2,1.6,1.6,2.5
				c0.5,1.1,0.9,2.3,1.2,3.5c0.2,0.6,0.3,1.2,0.4,1.8c0.1,0.6,0.2,1.2,0.2,1.8c0.1,1.2,0.1,2.4,0,3.6c-0.1,1.2-0.4,2.4-0.7,3.6
				c-0.3,1.2-0.8,2.3-1.4,3.3c-0.6,1-1.3,2-2.2,2.9c-1.5,1.7-3.3,3.1-5.3,4.1c-2,1.1-4.1,1.9-6.4,2.4
				C300.9,206.3,300.6,206.3,300,206.2z"/>
		</g>
	</g>
</g>
</svg>